# xmcd CD database file
#
# Track frame offsets:
#	180
#	13863
#	24698
#	38197
#	49426
#	59990
#	74797
#	89914
#	102239
#	114510
#	123214
#	136936
#	149882
#	164838
#	178337
#	194015
#
# Disc length: 2782 seconds
#
# Revision: 0
# Processed by: cddbd v1.5.2PL0 Copyright (c) Steve Scherf et al.
# Submitted via: CDex 1.51
#
DISCID=130adc10
DTITLE=Rudi's Slide  Washboard Band - Blues for Timmy
DYEAR=1993
DGENRE=Blues
TTITLE0=Let's work together
TTITLE1=Hard travelling
TTITLE2=Candy man
TTITLE3=Tourenkarten Blues
TTITLE4=Tell me, baby
TTITLE5=Dahlumer goat fuck blues
TTITLE6=Long ways from home
TTITLE7=You got to move
TTITLE8=Go back to school
TTITLE9=Blues for Timmy
TTITLE10=Dust my broom
TTITLE11=Lisa's Blues
TTITLE12=Good morning Blues
TTITLE13=You get me running
TTITLE14=Mississippi steamboat Blues
TTITLE15=Let's work together
EXTD=YEAR: 1993
EXTT0=
EXTT1=
EXTT2=
EXTT3=
EXTT4=
EXTT5=
EXTT6=
EXTT7=
EXTT8=
EXTT9=
EXTT10=
EXTT11=
EXTT12=
EXTT13=
EXTT14=
EXTT15=
PLAYORDER=
